<svg xmlns="http://www.w3.org/2000/svg" width="64" height="64" viewBox="0 0 64 64">
  <rect width="64" height="64" rx="14" fill="#0A0A0A"/>
  <g fill="none" stroke="#FF6B3D" stroke-width="3.2" stroke-linecap="round" stroke-linejoin="round">
    <path d="M23 20c-4 0-7 3-7 7 0 2 .8 3.8 2.2 5.2A7.4 7.4 0 0 0 22 45h9V20h-8z"/>
    <path d="M41 20c4 0 7 3 7 7 0 2-.8 3.8-2.2 5.2A7.4 7.4 0 0 1 42 45h-9V20h8z"/>
    <path d="M32 20v25"/>
    <path d="M22 27c2 0 3.5 1.6 3.5 3.5S24 34 22 34"/>
    <path d="M22 34c2 0 3.5 1.6 3.5 3.5S24 41 22 41"/>
    <path d="M42 27c-2 0-3.5 1.6-3.5 3.5S40 34 42 34"/>
    <path d="M42 34c-2 0-3.5 1.6-3.5 3.5S40 41 42 41"/>
    <path d="M28.5 24.5c-1.8.4-3 2-3 3.7"/>
    <path d="M35.5 24.5c1.8.4 3 2 3 3.7"/>
  </g>
</svg>
